<svg xmlns="http://www.w3.org/2000/svg" fill="none" viewBox="0 0 39 39">
    <symbol id="diskette">
        <path d="M0 0h3v3H0zM0 3h3v3H0zM0 6h3v3H0zM0 9h3v3H0zM0 12h3v3H0zM0 15h3v3H0zM0 18h3v3H0zM0 21h3v3H0zM0 24h3v3H0zM0 27h3v3H0zM0 30h3v3H0zM0 33h3v3H0zM0 36h3v3H0zM33 0v3h-3V0zM30 0v3h-3V0zM27 0v3h-3V0zM24 0v3h-3V0zM21 0v3h-3V0zM18 0v3h-3V0zM15 0v3h-3V0zM12 0v3H9V0zM9 0v3H6V0zM6 0v3H3V0zM36 3v3h-3V3zM9 6v3H6V6zM9 3v3H6V3zM9 9v3H6V9zM30 6v3h-3V6zM30 3v3h-3V3zM30 9v3h-3V9zM24 6v3h-3V6zM24 3v3h-3V3zM24 9v3h-3V9zM30 12v3h-3v-3zM27 12v3h-3v-3zM24 12v3h-3v-3zM21 12v3h-3v-3zM18 12v3h-3v-3zM15 12v3h-3v-3zM12 12v3H9v-3zM9 12v3H6v-3zM33 21v3h-3v-3zM30 21v3h-3v-3zM27 21v3h-3v-3zM24 21v3h-3v-3zM21 21v3h-3v-3zM18 21v3h-3v-3zM15 21v3h-3v-3zM12 21v3H9v-3zM9 21v3H6v-3zM33 24v3h-3v-3zM9 24v3H6v-3zM33 27v3h-3v-3zM9 27v3H6v-3zM33 30v3h-3v-3zM9 30v3H6v-3zM9 33v3H6v-3zM33 33v3h-3v-3zM36 36v3h-3v-3zM33 36v3h-3v-3zM30 36v3h-3v-3zM27 36v3h-3v-3zM24 36v3h-3v-3zM21 36v3h-3v-3zM18 36v3h-3v-3zM15 36v3h-3v-3zM12 36v3H9v-3zM9 36v3H6v-3zM6 36v3H3v-3zM39 39h-3v-3h3zM39 36h-3v-3h3zM39 33h-3v-3h3zM39 30h-3v-3h3zM39 27h-3v-3h3zM39 24h-3v-3h3zM39 21h-3v-3h3zM39 18h-3v-3h3zM39 15h-3v-3h3zM39 12h-3V9h3zM39 9h-3V6h3z"/>
    </symbol>
</svg>

<svg xmlns="http://www.w3.org/2000/svg" width="256" height="256" fill="none" viewBox="0 0 256 256">
    <symbol id="favicon">
        <path fill="#000" d="M128 128h32v32h-32zM96 128V96h32v32zM96 128v32H64v-32zM192 64h-32v32h32z"/><path fill="#000" fill-rule="evenodd" d="M0 0v256h256V0zm224 224h-64v-32h32v-32h32zm-64-64h32v-32h32V32H32v128h32v32H32v32h96v-32h32z" clip-rule="evenodd"/>
    </symbol>
</svg>


<svg xmlns="http://www.w3.org/2000/svg" width="39" height="36" fill="none" viewBox="0 0 39 36">
    <symbol id="Like">
        <path d="M12 6H9v3h3zM15 6h-3v3h3zM9 9H6v3h3zM9 12H6v3h3zM9 15H6v3h3zM18 6h-3v3h3zM12 18H9v3h3zM15 21h-3v3h3zM18 24h-3v3h3zM27 6h3v3h-3zM24 6h3v3h-3zM30 9h3v3h-3zM30 12h3v3h-3zM30 15h3v3h-3zM21 6h3v3h-3zM27 18h3v3h-3zM24 21h3v3h-3zM21 24h3v3h-3zM21 9h-3v3h3zM21 27h-3v3h3z"/>
    </symbol>
</svg>